<svg xmlns="http://www.w3.org/2000/svg" width="1440" height="360" viewBox="0 0 1440 360" fill="none">
  <rect width="1440" height="360" fill="#0f172a"/>
  <path d="M0 291L60 281C120 270 240 249 360 229C480 208 600 187 720 182C840 176 960 187 1080 187C1200 187 1320 176 1380 171L1440 166V360H1380C1320 360 1200 360 1080 360C960 360 840 360 720 360C600 360 480 360 360 360C240 360 120 360 60 360H0V291Z" fill="#1d4ed8" fill-opacity="0.28"/>
  <path d="M0 327L60 317C120 306 240 284 360 270C480 255 600 249 720 255C840 262 960 284 1080 281C1200 277 1320 248 1380 234L1440 220V360H1380C1320 360 1200 360 1080 360C960 360 840 360 720 360C600 360 480 360 360 360C240 360 120 360 60 360H0V327Z" fill="#22d3ee" fill-opacity="0.2"/>
</svg>
